<?xml version="1.0" standalone="no"?>
<svg xmlns:xlink="http://www.w3.org/1999/xlink" id="wave" style="transform:rotate(180deg); transition: 0.3s" viewBox="0 0 1440 100" version="1.1" xmlns="http://www.w3.org/2000/svg"><defs><linearGradient id="sw-gradient-0" x1="0" x2="0" y1="1" y2="0"><stop stop-color="rgba(203, 251, 255, 1)" offset="0%"/><stop stop-color="rgba(203, 251, 255, 1)" offset="100%"/></linearGradient></defs><path style="transform:translate(0, 0px); opacity:1" fill="url(#sw-gradient-0)" d="M0,80L34.3,66.7C68.6,53,137,27,206,26.7C274.3,27,343,53,411,66.7C480,80,549,80,617,78.3C685.7,77,754,73,823,60C891.4,47,960,23,1029,26.7C1097.1,30,1166,60,1234,70C1302.9,80,1371,70,1440,68.3C1508.6,67,1577,73,1646,70C1714.3,67,1783,53,1851,51.7C1920,50,1989,60,2057,68.3C2125.7,77,2194,83,2263,73.3C2331.4,63,2400,37,2469,21.7C2537.1,7,2606,3,2674,8.3C2742.9,13,2811,27,2880,31.7C2948.6,37,3017,33,3086,33.3C3154.3,33,3223,37,3291,46.7C3360,57,3429,73,3497,78.3C3565.7,83,3634,77,3703,66.7C3771.4,57,3840,43,3909,35C3977.1,27,4046,23,4114,25C4182.9,27,4251,33,4320,40C4388.6,47,4457,53,4526,61.7C4594.3,70,4663,80,4731,70C4800,60,4869,30,4903,15L4937.1,0L4937.1,100L4902.9,100C4868.6,100,4800,100,4731,100C4662.9,100,4594,100,4526,100C4457.1,100,4389,100,4320,100C4251.4,100,4183,100,4114,100C4045.7,100,3977,100,3909,100C3840,100,3771,100,3703,100C3634.3,100,3566,100,3497,100C3428.6,100,3360,100,3291,100C3222.9,100,3154,100,3086,100C3017.1,100,2949,100,2880,100C2811.4,100,2743,100,2674,100C2605.7,100,2537,100,2469,100C2400,100,2331,100,2263,100C2194.3,100,2126,100,2057,100C1988.6,100,1920,100,1851,100C1782.9,100,1714,100,1646,100C1577.1,100,1509,100,1440,100C1371.4,100,1303,100,1234,100C1165.7,100,1097,100,1029,100C960,100,891,100,823,100C754.3,100,686,100,617,100C548.6,100,480,100,411,100C342.9,100,274,100,206,100C137.1,100,69,100,34,100L0,100Z"/></svg>